<mxfile host="app.diagrams.net" agent="Mozilla/5.0 (Windows NT 10.0; Win64; x64) AppleWebKit/537.36 (KHTML, like Gecko) Chrome/133.0.0.0 Safari/537.36" version="26.0.16">
  <diagram id="C5RBs43oDa-KdzZeNtuy" name="Page-1">
    <mxGraphModel grid="0" page="0" gridSize="10" guides="1" tooltips="1" connect="1" arrows="1" fold="1" pageScale="1" pageWidth="827" pageHeight="1169" background="none" math="0" shadow="0">
      <root>
        <mxCell id="WIyWlLk6GJQsqaUBKTNV-0" />
        <mxCell id="WIyWlLk6GJQsqaUBKTNV-1" parent="WIyWlLk6GJQsqaUBKTNV-0" />
        <mxCell id="m4UK7YVSIQvR0up3ozwo-6" value="Server" style="swimlane;fontStyle=1;align=center;verticalAlign=top;childLayout=stackLayout;horizontal=1;startSize=26;horizontalStack=0;resizeParent=1;resizeParentMax=0;resizeLast=0;collapsible=1;marginBottom=0;whiteSpace=wrap;html=1;rounded=1;fontSize=15;" vertex="1" parent="WIyWlLk6GJQsqaUBKTNV-1">
          <mxGeometry x="316" y="117" width="427" height="522" as="geometry" />
        </mxCell>
        <mxCell id="m4UK7YVSIQvR0up3ozwo-7" value="&lt;div&gt;- server:&amp;nbsp;&lt;span style=&quot;background-color: transparent; color: light-dark(rgb(0, 0, 0), rgb(255, 255, 255));&quot;&gt;QTcpServer *&lt;/span&gt;&lt;/div&gt;&lt;div&gt;-&amp;nbsp;&lt;span style=&quot;background-color: transparent; color: light-dark(rgb(0, 0, 0), rgb(255, 255, 255));&quot;&gt;clients:&amp;nbsp;&lt;/span&gt;&lt;span style=&quot;background-color: transparent; color: light-dark(rgb(0, 0, 0), rgb(255, 255, 255));&quot;&gt;QList&amp;lt;QTcpSocket *&amp;gt;&lt;/span&gt;&lt;/div&gt;&lt;div&gt;&lt;span style=&quot;background-color: transparent; color: light-dark(rgb(0, 0, 0), rgb(255, 255, 255));&quot;&gt;-&amp;nbsp;&lt;/span&gt;&lt;span style=&quot;background-color: transparent; color: light-dark(rgb(0, 0, 0), rgb(255, 255, 255));&quot;&gt;connectedUsers:&amp;nbsp;&lt;/span&gt;&lt;span style=&quot;background-color: transparent; color: light-dark(rgb(0, 0, 0), rgb(255, 255, 255));&quot;&gt;QHash&amp;lt;QTcpSocket *, QString&amp;gt;&lt;/span&gt;&lt;/div&gt;&lt;div&gt;&lt;span style=&quot;background-color: transparent; color: light-dark(rgb(0, 0, 0), rgb(255, 255, 255));&quot;&gt;-&amp;nbsp;&lt;/span&gt;&lt;span style=&quot;background-color: transparent;&quot;&gt;commandHandler:&amp;nbsp;&lt;/span&gt;&lt;span style=&quot;background-color: transparent;&quot;&gt;CommandHandler *&lt;/span&gt;&lt;/div&gt;" style="text;strokeColor=none;fillColor=none;align=left;verticalAlign=top;spacingLeft=4;spacingRight=4;overflow=hidden;rotatable=0;points=[[0,0.5],[1,0.5]];portConstraint=eastwest;whiteSpace=wrap;html=1;fontSize=15;rounded=1;" vertex="1" parent="m4UK7YVSIQvR0up3ozwo-6">
          <mxGeometry y="26" width="427" height="83" as="geometry" />
        </mxCell>
        <mxCell id="m4UK7YVSIQvR0up3ozwo-8" value="" style="line;strokeWidth=1;fillColor=none;align=left;verticalAlign=middle;spacingTop=-1;spacingLeft=3;spacingRight=3;rotatable=0;labelPosition=right;points=[];portConstraint=eastwest;strokeColor=inherit;rounded=1;fontSize=15;" vertex="1" parent="m4UK7YVSIQvR0up3ozwo-6">
          <mxGeometry y="109" width="427" height="8" as="geometry" />
        </mxCell>
        <mxCell id="m4UK7YVSIQvR0up3ozwo-9" value="&lt;div&gt;+&amp;nbsp;explicit Server(QObject *)&lt;/div&gt;&lt;div&gt;+&amp;nbsp;~Server()&lt;/div&gt;&lt;div&gt;&lt;br&gt;&lt;/div&gt;&lt;div&gt;+&amp;nbsp;[[nodiscard]] startServer(quint16 port): const bool&lt;/div&gt;&lt;div&gt;&lt;span style=&quot;background-color: transparent;&quot;&gt;+ static&amp;nbsp;&lt;/span&gt;&lt;span style=&quot;background-color: transparent;&quot;&gt;send&lt;/span&gt;&lt;span style=&quot;background-color: transparent;&quot;&gt;Command&lt;/span&gt;&lt;span style=&quot;background-color: transparent; color: light-dark(rgb(0, 0, 0), rgb(255, 255, 255));&quot;&gt;Response(QTcpSocket *socket, const CommandResponse &amp;amp;response): void&lt;/span&gt;&lt;/div&gt;&lt;div&gt;&lt;span style=&quot;background-color: transparent;&quot;&gt;+&amp;nbsp;&lt;/span&gt;&lt;span style=&quot;background-color: transparent;&quot;&gt;[[nodiscard]]&lt;/span&gt;&lt;span style=&quot;color: light-dark(rgb(0, 0, 0), rgb(255, 255, 255)); background-color: transparent;&quot;&gt;&amp;nbsp;&lt;/span&gt;&lt;span style=&quot;color: light-dark(rgb(0, 0, 0), rgb(255, 255, 255)); background-color: transparent;&quot;&gt;isUserOnline(const QString &amp;amp;username): const bool&lt;/span&gt;&lt;/div&gt;&lt;div&gt;+&amp;nbsp;addConnectedUser(QTcpSocket *socket, const QString &amp;amp;username): void&lt;/div&gt;&lt;div&gt;+ getUserBySocket(QTcpSocket *socket): const&amp;nbsp;QString&lt;/div&gt;&lt;div&gt;+ static&amp;nbsp;sendResponse(QTcpSocket *socket, const QJsonObject &amp;amp;jsonResponse): void&lt;/div&gt;&lt;div&gt;+&amp;nbsp;broadcastMessage(const QString &amp;amp;sender, const QString &amp;amp;message): void&lt;/div&gt;&lt;div&gt;+&amp;nbsp;broadcastJSON(const QJsonObject &amp;amp;json): void&lt;/div&gt;&lt;div&gt;+&amp;nbsp;broadcastSystemMessage(const QString &amp;amp;message):void&lt;/div&gt;&lt;div&gt;+&amp;nbsp;getOnlineUsers(): const QString&lt;/div&gt;&lt;div&gt;&lt;br&gt;&lt;/div&gt;&lt;div&gt;-&amp;nbsp;&lt;span style=&quot;background-color: transparent;&quot;&gt;handleNewConnection(): void&lt;/span&gt;&lt;/div&gt;&lt;div&gt;&lt;span style=&quot;background-color: transparent; color: light-dark(rgb(0, 0, 0), rgb(255, 255, 255));&quot;&gt;- handleReadyRead():&amp;nbsp;&lt;/span&gt;&lt;span style=&quot;background-color: transparent; color: light-dark(rgb(0, 0, 0), rgb(255, 255, 255));&quot;&gt;void&lt;/span&gt;&lt;/div&gt;&lt;div&gt;&lt;span style=&quot;background-color: transparent; color: light-dark(rgb(0, 0, 0), rgb(255, 255, 255));&quot;&gt;- handleClientDisconnected():&amp;nbsp;&lt;/span&gt;&lt;span style=&quot;background-color: transparent; color: light-dark(rgb(0, 0, 0), rgb(255, 255, 255));&quot;&gt;void&lt;/span&gt;&lt;/div&gt;&lt;div&gt;&lt;br&gt;&lt;/div&gt;&lt;div&gt;&lt;br&gt;&lt;/div&gt;&lt;div&gt;&lt;br&gt;&lt;/div&gt;&lt;div&gt;&lt;span style=&quot;background-color: transparent;&quot;&gt;&lt;br&gt;&lt;/span&gt;&lt;/div&gt;" style="text;strokeColor=none;fillColor=none;align=left;verticalAlign=top;spacingLeft=4;spacingRight=4;overflow=hidden;rotatable=0;points=[[0,0.5],[1,0.5]];portConstraint=eastwest;whiteSpace=wrap;html=1;fontSize=15;rounded=1;" vertex="1" parent="m4UK7YVSIQvR0up3ozwo-6">
          <mxGeometry y="117" width="427" height="405" as="geometry" />
        </mxCell>
        <mxCell id="m4UK7YVSIQvR0up3ozwo-10" value="&lt;b&gt;CommandResponse&lt;/b&gt;" style="swimlane;fontStyle=0;childLayout=stackLayout;horizontal=1;startSize=26;fillColor=none;horizontalStack=0;resizeParent=1;resizeParentMax=0;resizeLast=0;collapsible=1;marginBottom=0;whiteSpace=wrap;html=1;rounded=1;fontSize=15;arcSize=20;" vertex="1" parent="WIyWlLk6GJQsqaUBKTNV-1">
          <mxGeometry x="962" y="578" width="180" height="78" as="geometry" />
        </mxCell>
        <mxCell id="m4UK7YVSIQvR0up3ozwo-11" value="+ status:&amp;nbsp;QString" style="text;strokeColor=none;fillColor=none;align=left;verticalAlign=top;spacingLeft=4;spacingRight=4;overflow=hidden;rotatable=0;points=[[0,0.5],[1,0.5]];portConstraint=eastwest;whiteSpace=wrap;html=1;fontSize=15;rounded=1;" vertex="1" parent="m4UK7YVSIQvR0up3ozwo-10">
          <mxGeometry y="26" width="180" height="26" as="geometry" />
        </mxCell>
        <mxCell id="m4UK7YVSIQvR0up3ozwo-12" value="+&amp;nbsp;message:&amp;nbsp;QString" style="text;strokeColor=none;fillColor=none;align=left;verticalAlign=top;spacingLeft=4;spacingRight=4;overflow=hidden;rotatable=0;points=[[0,0.5],[1,0.5]];portConstraint=eastwest;whiteSpace=wrap;html=1;fontSize=15;rounded=1;" vertex="1" parent="m4UK7YVSIQvR0up3ozwo-10">
          <mxGeometry y="52" width="180" height="26" as="geometry" />
        </mxCell>
        <mxCell id="m4UK7YVSIQvR0up3ozwo-15" value="" style="line;strokeWidth=1;fillColor=none;align=left;verticalAlign=middle;spacingTop=-1;spacingLeft=3;spacingRight=3;rotatable=0;labelPosition=right;points=[];portConstraint=eastwest;strokeColor=inherit;rounded=1;fontSize=15;" vertex="1" parent="WIyWlLk6GJQsqaUBKTNV-1">
          <mxGeometry x="743" y="167" width="72" height="8" as="geometry" />
        </mxCell>
        <mxCell id="m4UK7YVSIQvR0up3ozwo-16" value="Database" style="swimlane;fontStyle=1;align=center;verticalAlign=top;childLayout=stackLayout;horizontal=1;startSize=26;horizontalStack=0;resizeParent=1;resizeParentMax=0;resizeLast=0;collapsible=1;marginBottom=0;whiteSpace=wrap;html=1;rounded=1;arcSize=25;fontSize=15;" vertex="1" parent="WIyWlLk6GJQsqaUBKTNV-1">
          <mxGeometry x="309" y="679" width="434" height="383" as="geometry" />
        </mxCell>
        <mxCell id="m4UK7YVSIQvR0up3ozwo-17" value="- db: QSqlDatabase" style="text;strokeColor=default;fillColor=none;align=left;verticalAlign=top;spacingLeft=4;spacingRight=4;overflow=hidden;rotatable=0;points=[[0,0.5],[1,0.5]];portConstraint=eastwest;whiteSpace=wrap;html=1;fontSize=15;perimeterSpacing=1;strokeWidth=1;rounded=0;" vertex="1" parent="m4UK7YVSIQvR0up3ozwo-16">
          <mxGeometry y="26" width="434" height="34" as="geometry" />
        </mxCell>
        <mxCell id="m4UK7YVSIQvR0up3ozwo-19" value="&lt;div&gt;&lt;span style=&quot;background-color: transparent; color: light-dark(rgb(0, 0, 0), rgb(255, 255, 255));&quot;&gt;+&amp;nbsp;&lt;/span&gt;&lt;span style=&quot;background-color: transparent; color: light-dark(rgb(0, 0, 0), rgb(255, 255, 255));&quot;&gt;Database(const Database &amp;amp;)&lt;/span&gt;&lt;/div&gt;&lt;div&gt;&lt;span style=&quot;background-color: transparent; color: light-dark(rgb(0, 0, 0), rgb(255, 255, 255));&quot;&gt;&lt;br&gt;&lt;/span&gt;&lt;/div&gt;&lt;div&gt;+ static instance(): Database &amp;amp;&lt;/div&gt;&lt;div&gt;&lt;br&gt;&lt;/div&gt;&lt;div&gt;+&amp;nbsp;init(const QString &amp;amp;dbPath = &quot;database.sqlite&quot;): bool&lt;/div&gt;&lt;div&gt;+ static&amp;nbsp;createTables(): bool&lt;br&gt;+ static&amp;nbsp;registerUser(const QString &amp;amp;username, const QString &amp;amp;password): bool&lt;/div&gt;&lt;div&gt;+ static&amp;nbsp;checkCredentials(const QString &amp;amp;username, const QString &amp;amp;password): bool&lt;/div&gt;&lt;div&gt;+ static&amp;nbsp;saveMessage(const QString &amp;amp;sender, const QString &amp;amp;content): bool&lt;/div&gt;&lt;div&gt;+ static&amp;nbsp;getRecentMessages(int limit = 50):&amp;nbsp;QList&amp;lt;QVariantMap&amp;gt;&lt;/div&gt;&lt;div&gt;&lt;br&gt;&lt;/div&gt;&lt;div&gt;-&amp;nbsp;explicit Database(QObject *parent = nullptr)&lt;/div&gt;&lt;div&gt;-&amp;nbsp;~Database()&lt;/div&gt;" style="text;strokeColor=none;fillColor=none;align=left;verticalAlign=top;spacingLeft=4;spacingRight=4;overflow=hidden;rotatable=0;points=[[0,0.5],[1,0.5]];portConstraint=eastwest;whiteSpace=wrap;html=1;fontSize=15;rounded=1;" vertex="1" parent="m4UK7YVSIQvR0up3ozwo-16">
          <mxGeometry y="60" width="434" height="323" as="geometry" />
        </mxCell>
        <mxCell id="m4UK7YVSIQvR0up3ozwo-22" value="" style="endArrow=none;html=1;rounded=1;exitX=0.472;exitY=0.002;exitDx=0;exitDy=0;exitPerimeter=0;horizontal=1;fontSize=15;entryX=0.465;entryY=0.997;entryDx=0;entryDy=0;entryPerimeter=0;" edge="1" parent="WIyWlLk6GJQsqaUBKTNV-1" source="m4UK7YVSIQvR0up3ozwo-16" target="m4UK7YVSIQvR0up3ozwo-9">
          <mxGeometry width="50" height="50" relative="1" as="geometry">
            <mxPoint x="515" y="556" as="sourcePoint" />
            <mxPoint x="517" y="643" as="targetPoint" />
          </mxGeometry>
        </mxCell>
        <mxCell id="LLBAoi7M6lzE_lHvnA8G-0" value="CommandHandler" style="swimlane;fontStyle=1;align=center;verticalAlign=top;childLayout=stackLayout;horizontal=1;startSize=26;horizontalStack=0;resizeParent=1;resizeParentMax=0;resizeLast=0;collapsible=1;marginBottom=0;whiteSpace=wrap;html=1;fontSize=15;rounded=1;" vertex="1" parent="WIyWlLk6GJQsqaUBKTNV-1">
          <mxGeometry x="819" y="137" width="466" height="391" as="geometry" />
        </mxCell>
        <mxCell id="LLBAoi7M6lzE_lHvnA8G-1" value="- server: Server *&lt;div&gt;-&amp;nbsp;handlers:&amp;nbsp;QHash&amp;lt;QString, CommandHandlerFunction&amp;gt;&lt;/div&gt;" style="text;strokeColor=none;fillColor=none;align=left;verticalAlign=top;spacingLeft=4;spacingRight=4;overflow=hidden;rotatable=0;points=[[0,0.5],[1,0.5]];portConstraint=eastwest;whiteSpace=wrap;html=1;fontSize=15;rounded=1;" vertex="1" parent="LLBAoi7M6lzE_lHvnA8G-0">
          <mxGeometry y="26" width="466" height="55" as="geometry" />
        </mxCell>
        <mxCell id="LLBAoi7M6lzE_lHvnA8G-2" value="" style="line;strokeWidth=1;fillColor=none;align=left;verticalAlign=middle;spacingTop=-1;spacingLeft=3;spacingRight=3;rotatable=0;labelPosition=right;points=[];portConstraint=eastwest;strokeColor=inherit;fontSize=15;rounded=1;" vertex="1" parent="LLBAoi7M6lzE_lHvnA8G-0">
          <mxGeometry y="81" width="466" height="8" as="geometry" />
        </mxCell>
        <mxCell id="LLBAoi7M6lzE_lHvnA8G-3" value="&lt;div&gt;+&amp;nbsp;explicit CommandHandler(Server *serverInstance)&lt;/div&gt;&lt;div&gt;+&amp;nbsp;registerHandlers(): void&lt;/div&gt;&lt;div&gt;+&amp;nbsp;processCommand(QTcpSocket *socket, const QJsonObject &amp;amp;json): void&lt;/div&gt;&lt;div&gt;&lt;br&gt;&lt;/div&gt;&lt;div&gt;- static&amp;nbsp;handleLogin (Server *server, QTcpSocket *socket, const QJsonObject &amp;amp;json): void&lt;/div&gt;&lt;div&gt;- static&amp;nbsp;handleRegister (Server *server, QTcpSocket *socket, const QJsonObject &amp;amp;json): void&lt;/div&gt;&lt;div&gt;- static&amp;nbsp;handleSendMessage (Server *server, QTcpSocket *socket, const QJsonObject &amp;amp;json): void&lt;/div&gt;&lt;div&gt;- static&amp;nbsp;handleGetHistory (Server *server, QTcpSocket *socket, const QJsonObject &amp;amp;json): void&lt;/div&gt;&lt;div&gt;- static&amp;nbsp;handleGetOnlineUsers (Server *server, QTcpSocket *socket, const QJsonObject &amp;amp;json): void&lt;/div&gt;&lt;div&gt;- static&amp;nbsp;broadcastOnlineUsers (Server *server): void&lt;/div&gt;" style="text;strokeColor=none;fillColor=none;align=left;verticalAlign=top;spacingLeft=4;spacingRight=4;overflow=hidden;rotatable=0;points=[[0,0.5],[1,0.5]];portConstraint=eastwest;whiteSpace=wrap;html=1;fontSize=15;rounded=1;" vertex="1" parent="LLBAoi7M6lzE_lHvnA8G-0">
          <mxGeometry y="89" width="466" height="302" as="geometry" />
        </mxCell>
        <mxCell id="LLBAoi7M6lzE_lHvnA8G-7" value="" style="endArrow=none;html=1;rounded=1;exitX=0.5;exitY=0;exitDx=0;exitDy=0;entryX=0.5;entryY=1.003;entryDx=0;entryDy=0;entryPerimeter=0;" edge="1" parent="WIyWlLk6GJQsqaUBKTNV-1" source="m4UK7YVSIQvR0up3ozwo-10" target="LLBAoi7M6lzE_lHvnA8G-3">
          <mxGeometry width="50" height="50" relative="1" as="geometry">
            <mxPoint x="956" y="506" as="sourcePoint" />
            <mxPoint x="1051" y="528" as="targetPoint" />
          </mxGeometry>
        </mxCell>
      </root>
    </mxGraphModel>
  </diagram>
</mxfile>
